<svg xmlns="http://www.w3.org/2000/svg" viewBox="0 0 1200 800" font-family="Pretendard, 'Apple SD Gothic Neo', sans-serif">
  <rect width="1200" height="800" fill="#ffffff"/>

  <!-- 로션 -->
  <g>
    <rect x="90" y="120" width="300" height="440" rx="20" fill="#e6f7f7" stroke="#0ea5a4" stroke-width="5"/>
    <rect x="90" y="428" width="300" height="132" rx="20" fill="#fef3c7"/>
    <path d="M90 428 h300" stroke="#0ea5a4" stroke-width="5"/>
    <rect x="90" y="120" width="300" height="440" rx="20" fill="none" stroke="#0ea5a4" stroke-width="5"/>
    <text x="240" y="300" text-anchor="middle" font-size="96" font-weight="800" fill="#0b8483">7</text>
    <text x="240" y="512" text-anchor="middle" font-size="60" font-weight="800" fill="#92400e">3</text>
    <text x="240" y="640" text-anchor="middle" font-size="54" font-weight="800" fill="#0f172a">로션</text>
    <text x="240" y="700" text-anchor="middle" font-size="38" fill="#64748b">가볍게</text>
  </g>

  <!-- 크림 -->
  <g>
    <rect x="450" y="120" width="300" height="440" rx="20" fill="#e6f7f7" stroke="#0ea5a4" stroke-width="5"/>
    <rect x="450" y="340" width="300" height="220" rx="20" fill="#fef3c7"/>
    <path d="M450 340 h300" stroke="#0ea5a4" stroke-width="5"/>
    <rect x="450" y="120" width="300" height="440" rx="20" fill="none" stroke="#0ea5a4" stroke-width="5"/>
    <text x="600" y="258" text-anchor="middle" font-size="80" font-weight="800" fill="#0b8483">5</text>
    <text x="600" y="478" text-anchor="middle" font-size="80" font-weight="800" fill="#92400e">5</text>
    <text x="600" y="640" text-anchor="middle" font-size="54" font-weight="800" fill="#0f172a">크림</text>
    <text x="600" y="700" text-anchor="middle" font-size="38" fill="#64748b">균형</text>
  </g>

  <!-- 연고 -->
  <g>
    <rect x="810" y="120" width="300" height="440" rx="20" fill="#e6f7f7" stroke="#0ea5a4" stroke-width="5"/>
    <rect x="810" y="208" width="300" height="352" rx="20" fill="#fef3c7"/>
    <path d="M810 208 h300" stroke="#0ea5a4" stroke-width="5"/>
    <rect x="810" y="120" width="300" height="440" rx="20" fill="none" stroke="#0ea5a4" stroke-width="5"/>
    <text x="960" y="188" text-anchor="middle" font-size="52" font-weight="800" fill="#0b8483">2</text>
    <text x="960" y="412" text-anchor="middle" font-size="96" font-weight="800" fill="#92400e">8</text>
    <text x="960" y="640" text-anchor="middle" font-size="54" font-weight="800" fill="#0f172a">연고</text>
    <text x="960" y="700" text-anchor="middle" font-size="38" fill="#64748b">오래</text>
  </g>

  <!-- 범례 -->
  <g>
    <rect x="316" y="736" width="40" height="40" rx="10" fill="#e6f7f7" stroke="#0ea5a4" stroke-width="4"/>
    <text x="370" y="769" font-size="42" font-weight="700" fill="#0b8483">수분</text>
    <rect x="620" y="736" width="40" height="40" rx="10" fill="#fef3c7" stroke="#f59e0b" stroke-width="4"/>
    <text x="674" y="769" font-size="42" font-weight="700" fill="#92400e">유분</text>
  </g>

  <text x="1180" y="784" text-anchor="end" font-size="20" fill="#cbd5e1">babyskinlab.com</text>
</svg>
