<svg xmlns="http://www.w3.org/2000/svg" viewBox="0 0 1200 800" font-family="Pretendard, sans-serif">
  <rect width="1200" height="800" fill="#ffffff"/>

  <!-- 카드 1 : 욕실 -->
  <rect x="40" y="150" width="340" height="500" rx="20" fill="#ffffff" stroke="#cbd5e1" stroke-width="5"/>
  <circle cx="210" cy="286" r="94" fill="#fef3c7"/>
  <g fill="none" stroke="#0b8483" stroke-width="6" stroke-linecap="round" stroke-linejoin="round">
    <path d="M210 218 v24"/>
    <path d="M158 244 h104 l-16 34 h-72 Z"/>
    <line x1="178" y1="300" x2="178" y2="340"/>
    <line x1="210" y1="308" x2="210" y2="352"/>
    <line x1="242" y1="300" x2="242" y2="340"/>
  </g>
  <circle cx="210" cy="436" r="36" fill="#ef4444"/>
  <path d="M195 421 l30 30 M225 421 l-30 30" fill="none" stroke="#ffffff" stroke-width="6" stroke-linecap="round"/>
  <text x="210" y="536" text-anchor="middle" font-size="54" font-weight="700" fill="#0f172a">욕실</text>
  <text x="210" y="606" text-anchor="middle" font-size="50" font-weight="600" fill="#64748b">습기</text>

  <!-- 카드 2 : 차 안 -->
  <rect x="430" y="150" width="340" height="500" rx="20" fill="#ffffff" stroke="#cbd5e1" stroke-width="5"/>
  <circle cx="600" cy="286" r="94" fill="#fef3c7"/>
  <g fill="none" stroke="#0b8483" stroke-width="6" stroke-linecap="round" stroke-linejoin="round">
    <path d="M566 214 q10 -16 20 0 q10 16 20 0"/>
    <path d="M528 274 l22 -40 h100 l22 40"/>
    <path d="M524 274 h152 v30 a10 10 0 0 1 -10 10 h-132 a10 10 0 0 1 -10 -10 Z"/>
    <circle cx="556" cy="324" r="15"/>
    <circle cx="644" cy="324" r="15"/>
  </g>
  <circle cx="600" cy="436" r="36" fill="#ef4444"/>
  <path d="M585 421 l30 30 M615 421 l-30 30" fill="none" stroke="#ffffff" stroke-width="6" stroke-linecap="round"/>
  <text x="600" y="536" text-anchor="middle" font-size="54" font-weight="700" fill="#0f172a">차 안</text>
  <text x="600" y="606" text-anchor="middle" font-size="50" font-weight="600" fill="#64748b">고온</text>

  <!-- 카드 3 : 서늘한 실내 -->
  <rect x="820" y="150" width="340" height="500" rx="20" fill="#ffffff" stroke="#0ea5a4" stroke-width="6"/>
  <circle cx="990" cy="286" r="94" fill="#e6f7f7"/>
  <g fill="none" stroke="#0b8483" stroke-width="6" stroke-linecap="round" stroke-linejoin="round">
    <path d="M912 296 l78 -70 l78 70"/>
    <path d="M930 290 v66 h120 v-66"/>
    <path d="M970 356 v-42 h40 v42"/>
  </g>
  <circle cx="990" cy="436" r="36" fill="#0ea5a4"/>
  <path d="M974 436 l11 13 l23 -27" fill="none" stroke="#ffffff" stroke-width="6" stroke-linecap="round" stroke-linejoin="round"/>
  <text x="990" y="536" text-anchor="middle" font-size="54" font-weight="700" fill="#0f172a">실내</text>
  <text x="990" y="608" text-anchor="middle" font-size="62" font-weight="800" fill="#0b8483">15–25°C</text>

  <text x="1180" y="784" text-anchor="end" font-size="20" fill="#cbd5e1">babyskinlab.com</text>
</svg>
